# xmcd CD database file
#
# Track frame offsets:
#	150
#	13772
#	28006
#	41983
#	55406
#	68499
#	80313
#	91683
#	104224
#	116452
#	131312
#	142954
#	155986
#	169687
#	184710
#	198256
#	211648
#	226663
#	238896
#	251469
#
# Disc length: 3549 seconds
#
# Revision: 1
# Processed by: cddbd v1.5.1PL2 Copyright (c) Steve Scherf et al.
# Submitted via: CDex 1.51
#
DISCID=090ddb14
DTITLE=Sidney Bechet - Bechet's Fantasy CD3
DYEAR=1900
DGENRE=Jazz
TTITLE0=When The Saints Go Marching In
TTITLE1=Nobody Knows You When You're Down And Out
TTITLE2=I Got Rhythm
TTITLE3=September Song
TTITLE4=Who?
TTITLE5=Song Of The Medina
TTITLE6=Maryland, My Maryland
TTITLE7=Careless Love
TTITLE8=Egyptian Fantasy
TTITLE9=Basin Street Blues
TTITLE10=Cake Walking Babies
TTITLE11=Tailgate Ramble
TTITLE12=At The Jazz Band Ball
TTITLE13=Joshua Fit The Battle Of Jericho
TTITLE14=Fidgety Feet
TTITLE15=Honeysuckle Rose
TTITLE16=Coquette
TTITLE17=On The Sunny Side Of The Street
TTITLE18=Sugar
TTITLE19=High Society
EXTD=
EXTT0=
EXTT1=
EXTT2=
EXTT3=
EXTT4=
EXTT5=
EXTT6=
EXTT7=
EXTT8=
EXTT9=
EXTT10=
EXTT11=
EXTT12=
EXTT13=
EXTT14=
EXTT15=
EXTT16=
EXTT17=
EXTT18=
EXTT19=
PLAYORDER=
